<?xml version="1.0" standalone="no"?>
<!DOCTYPE svg PUBLIC "-//W3C//DTD SVG 20010904//EN"
 "http://www.w3.org/TR/2001/REC-SVG-20010904/DTD/svg10.dtd">
<svg version="1.0" xmlns="http://www.w3.org/2000/svg"
 width="512.000000pt" height="512.000000pt" viewBox="0 0 512.000000 512.000000"
 preserveAspectRatio="xMidYMid meet">
<metadata>
Created by potrace 1.14, written by Peter Selinger 2001-2017
</metadata>
<g transform="translate(0.000000,512.000000) scale(0.100000,-0.100000)"
fill="#000000" stroke="none">
<path d="M2390 4790 c-19 -4 -60 -13 -92 -18 -31 -6 -64 -15 -75 -20 -44 -24
-135 -62 -147 -62 -20 0 -153 -104 -249 -195 -43 -40 -107 -126 -107 -142 0
-5 -11 -19 -24 -30 -35 -31 -85 -140 -90 -200 -3 -28 -15 -91 -27 -140 -18
-74 -20 -106 -16 -203 3 -63 11 -131 16 -150 6 -19 16 -84 21 -145 6 -60 17
-130 26 -154 11 -36 11 -46 2 -53 -10 -6 -10 -12 0 -29 20 -31 27 -125 13
-152 -14 -27 0 -77 22 -77 17 0 37 204 38 380 1 180 5 241 18 273 15 39 13
128 -4 151 -10 13 -11 25 -4 43 5 14 6 29 3 35 -4 6 -1 14 7 18 10 7 10 11 0
24 -11 14 -11 23 2 59 9 23 19 58 22 77 4 20 19 50 35 68 27 31 30 32 72 23
23 -6 66 -13 93 -16 73 -9 85 -14 85 -36 0 -21 12 -24 38 -10 9 4 38 11 65 13
36 4 47 2 47 -8 0 -17 5 -17 30 -4 24 13 130 -8 124 -24 -2 -6 0 -17 5 -25 8
-12 12 -12 24 -2 12 10 18 9 28 -2 11 -11 17 -12 39 0 14 7 33 13 43 13 24 0
158 45 216 73 37 17 61 20 137 18 52 -1 102 3 113 9 14 7 22 7 27 -1 3 -6 17
-9 30 -6 18 3 24 0 22 -11 -5 -29 18 -22 61 20 44 42 46 47 41 121 -1 9 6 25
15 33 20 21 46 9 109 -50 24 -23 55 -47 69 -55 15 -8 29 -22 33 -33 3 -10 9
-18 15 -18 5 0 16 -15 24 -32 8 -18 28 -55 44 -83 18 -31 34 -77 41 -120 6
-38 16 -78 21 -87 5 -10 9 -34 9 -53 0 -19 4 -35 8 -35 4 0 8 -100 8 -222 -1
-275 4 -378 15 -378 5 0 10 17 10 38 1 20 2 62 3 92 5 134 28 413 41 500 9 52
13 113 11 135 -9 83 -25 152 -45 198 -12 27 -21 54 -21 60 0 17 -60 100 -94
129 -17 15 -26 30 -22 37 4 6 12 9 17 6 5 -4 9 -4 9 -1 0 3 -12 12 -27 20 -37
19 -153 133 -153 149 0 14 -130 116 -177 140 -15 8 -41 17 -58 20 -16 3 -66
23 -110 43 -142 67 -139 66 -320 69 -93 2 -186 0 -205 -5z m630 -570 c0 -5 -4
-10 -10 -10 -5 0 -10 5 -10 10 0 6 5 10 10 10 6 0 10 -4 10 -10z"/>
<path d="M1990 3515 c-7 -8 -21 -15 -32 -15 -23 0 -77 -27 -99 -49 -8 -9 -16
-35 -17 -57 -2 -40 -1 -40 28 -36 16 2 27 8 24 13 -3 5 2 9 10 9 9 0 16 5 16
11 0 6 11 8 29 4 19 -4 34 -1 44 9 26 27 174 17 260 -16 16 -6 40 -11 54 -12
15 -1 28 -7 31 -15 4 -11 -2 -12 -23 -7 -17 4 -24 3 -20 -4 4 -7 -2 -7 -18 -1
-14 6 -27 8 -29 6 -2 -3 -39 -7 -81 -9 -75 -5 -209 -39 -234 -59 -24 -18 -13
-36 30 -48 23 -6 51 -15 62 -20 21 -9 136 -49 142 -49 1 0 3 3 3 8 0 4 -15 13
-32 21 -18 8 -42 21 -54 30 l-21 15 28 23 c34 29 39 29 39 0 0 -43 63 -94 100
-82 24 8 64 71 56 90 -10 27 20 16 72 -25 52 -42 62 -41 76 8 4 12 12 22 17
22 5 0 9 18 9 40 0 22 -5 40 -11 40 -18 0 -69 57 -64 72 7 20 -39 66 -66 66
-13 0 -86 1 -163 1 -121 0 -138 2 -133 16 8 20 -16 20 -33 0z m405 -186 c11
-16 2 -17 -25 -2 -24 12 -24 13 -3 13 12 0 25 -5 28 -11z m45 -34 c0 -8 -4
-15 -10 -15 -5 0 -10 7 -10 15 0 8 5 15 10 15 6 0 10 -7 10 -15z m-205 -15 c3
-5 -3 -10 -14 -10 -12 0 -21 5 -21 10 0 6 6 10 14 10 8 0 18 -4 21 -10z"/>
<path d="M3124 3519 c-3 -6 -23 -9 -43 -7 -20 3 -52 1 -71 -3 -19 -4 -51 -10
-71 -13 -26 -5 -39 -13 -43 -29 -7 -21 -8 -21 -15 -3 -7 19 -8 19 -16 0 -4
-10 -7 -26 -6 -34 1 -9 -12 -26 -29 -39 -18 -13 -30 -29 -28 -39 2 -9 -7 -28
-19 -42 -30 -32 -29 -48 2 -60 14 -5 25 -14 25 -20 0 -19 23 -10 76 30 29 22
56 40 59 40 3 0 5 -11 5 -25 0 -42 38 -85 75 -85 39 0 78 47 73 87 -4 35 11
38 45 10 37 -29 28 -51 -32 -78 -25 -12 -40 -23 -34 -26 7 -2 27 3 44 11 18 9
47 16 65 16 20 0 37 6 42 16 6 11 17 15 30 12 15 -4 21 0 25 18 12 64 -42 90
-205 98 -126 6 -167 19 -97 31 24 4 57 14 72 22 15 8 66 19 112 25 75 10 87
10 103 -5 10 -9 27 -17 38 -17 10 0 31 -6 45 -14 26 -13 27 -13 32 22 7 38
-15 76 -56 99 -27 15 -194 16 -203 2z m-206 -163 c-2 -1 -10 -7 -19 -14 -13
-10 -18 -10 -22 0 -3 8 5 14 20 14 13 1 23 1 21 0z m-68 -36 c0 -5 -7 -10 -15
-10 -8 0 -15 5 -15 10 0 6 7 10 15 10 8 0 15 -4 15 -10z m-45 -30 c3 -5 1 -10
-4 -10 -6 0 -11 5 -11 10 0 6 2 10 4 10 3 0 8 -4 11 -10z m228 -7 c-7 -2 -19
-2 -25 0 -7 3 -2 5 12 5 14 0 19 -2 13 -5z m242 -3 c3 -5 2 -10 -4 -10 -5 0
-13 5 -16 10 -3 6 -2 10 4 10 5 0 13 -4 16 -10z"/>
<path d="M1482 3215 c-19 -10 -20 -14 -9 -24 8 -6 21 -9 30 -5 8 3 25 1 36 -6
29 -15 28 6 -1 31 -24 22 -25 22 -56 4z"/>
<path d="M3620 3195 l-25 -25 27 0 c14 0 28 -6 31 -12 6 -19 15 -7 19 27 4 38
-18 43 -52 10z"/>
<path d="M2325 3200 c-4 -6 6 -10 22 -10 22 0 25 2 13 10 -19 12 -27 12 -35 0z"/>
<path d="M2890 3200 c0 -6 7 -10 15 -10 8 0 15 2 15 4 0 2 -7 6 -15 10 -8 3
-15 1 -15 -4z"/>
<path d="M2275 3180 c-3 -5 -2 -10 4 -10 5 0 13 5 16 10 3 6 2 10 -4 10 -5 0
-13 -4 -16 -10z"/>
<path d="M1671 2980 c0 -8 4 -24 9 -35 5 -13 9 -14 9 -5 0 8 -4 24 -9 35 -5
13 -9 14 -9 5z"/>
<path d="M3506 2885 c-3 -9 -6 -22 -5 -28 0 -7 5 -1 10 12 5 13 8 26 5 28 -2
2 -6 -3 -10 -12z"/>
<path d="M1682 2838 c6 -18 28 -21 28 -4 0 9 -7 16 -16 16 -9 0 -14 -5 -12
-12z"/>
<path d="M1700 2785 c0 -8 5 -15 10 -15 6 0 10 7 10 15 0 8 -4 15 -10 15 -5 0
-10 -7 -10 -15z"/>
<path d="M2432 2728 c-32 -16 -22 -33 19 -33 24 0 48 -11 83 -37 55 -43 87
-47 118 -18 12 11 36 20 54 20 17 0 37 7 44 15 8 9 22 12 41 8 41 -8 37 11 -7
32 -43 20 -76 14 -106 -20 -40 -47 -63 -56 -94 -41 -14 8 -40 30 -56 50 -31
38 -55 43 -96 24z"/>
<path d="M2389 2666 c13 -16 51 -28 51 -17 0 7 -44 31 -57 31 -3 0 0 -6 6 -14z"/>
<path d="M2829 2661 c-14 -12 -18 -20 -11 -21 15 0 47 28 40 36 -3 2 -16 -4
-29 -15z"/>
<path d="M2560 2383 c0 -9 -21 -10 -179 -15 -71 -2 -106 -7 -109 -16 -2 -6 2
-13 10 -13 7 -1 18 -2 23 -3 6 -1 29 -6 53 -10 23 -5 42 -12 42 -17 0 -5 15
-9 33 -8 17 0 26 3 20 6 -7 2 -13 8 -13 13 0 15 64 20 127 9 48 -8 79 -8 124
0 75 15 132 6 124 -19 -5 -17 -3 -17 19 -7 14 7 26 15 26 19 0 3 27 9 61 13
48 6 59 10 57 24 -3 13 -15 15 -73 13 -39 -2 -101 2 -138 8 -57 9 -71 8 -90
-5 -27 -19 -58 -19 -83 0 -21 16 -34 19 -34 8z"/>
<path d="M2800 2270 c0 -5 5 -10 10 -10 6 0 10 5 10 10 0 6 -4 10 -10 10 -5 0
-10 -4 -10 -10z"/>
<path d="M2620 2230 c36 -11 70 -12 70 -1 0 5 -21 9 -47 9 -38 -1 -43 -2 -23
-8z"/>
<path d="M1908 2067 c4 -83 1 -129 -8 -157 -11 -35 -11 -48 5 -99 9 -32 28
-72 42 -87 14 -18 20 -21 15 -9 -10 20 -37 128 -45 178 -3 18 0 27 9 27 10 0
14 15 14 53 0 63 11 85 31 65 8 -8 22 -17 32 -21 9 -3 17 -13 17 -22 0 -8 5
-15 10 -15 6 0 19 -14 29 -31 10 -17 20 -29 23 -27 9 7 108 -87 108 -103 0
-10 5 -21 10 -24 6 -3 10 -1 10 4 0 6 5 11 10 11 6 0 10 -11 10 -25 0 -32 39
-73 51 -54 4 7 5 17 3 21 -3 4 1 8 9 8 10 0 13 -7 10 -19 -3 -10 0 -22 6 -25
6 -4 11 -2 11 5 0 7 10 9 28 6 154 -29 244 -38 312 -32 83 7 165 22 195 35 22
9 66 19 106 24 26 3 89 44 89 58 0 4 15 23 34 42 36 37 63 92 51 104 -3 4 -15
-3 -25 -15 -10 -13 -25 -23 -33 -23 -9 0 -17 -6 -20 -12 -2 -7 -7 -10 -11 -6
-4 3 -3 15 3 27 7 13 8 22 1 26 -5 3 -10 -1 -10 -9 0 -9 -5 -16 -11 -16 -6 0
-8 -9 -4 -20 6 -18 2 -20 -34 -20 -22 0 -60 -9 -83 -19 -81 -37 -266 -53 -413
-36 -68 8 -161 40 -189 67 -11 10 -26 18 -33 18 -7 0 -13 3 -13 8 0 4 -16 16
-36 27 -28 15 -39 17 -54 7 -14 -9 -21 -8 -30 3 -9 10 -7 16 7 24 16 9 15 10
-8 11 -14 0 -35 9 -47 20 -12 11 -30 20 -42 20 -11 0 -20 4 -20 8 0 5 -24 26
-54 48 -30 21 -58 50 -64 64 -7 18 -8 -9 -4 -93z m312 -151 c0 -11 -19 -15
-25 -6 -3 5 1 10 9 10 9 0 16 -2 16 -4z m760 -67 c0 -5 -7 -9 -15 -9 -9 0 -12
6 -9 15 6 15 24 11 24 -6z"/>
<path d="M3294 1876 c-3 -14 -3 -30 1 -35 3 -6 1 -30 -6 -53 -7 -24 -13 -50
-14 -58 -1 -8 -9 -29 -18 -47 -23 -44 -21 -64 3 -33 46 57 73 142 64 199 -8
49 -21 61 -30 27z"/>
<path d="M2660 1093 c-19 -7 -70 -54 -70 -64 0 -5 10 -17 22 -29 45 -42 95
-14 105 59 5 38 4 41 -18 40 -13 0 -31 -3 -39 -6z m20 -53 c0 -11 -7 -20 -15
-20 -8 0 -15 9 -15 20 0 11 7 20 15 20 8 0 15 -9 15 -20z"/>
<path d="M2660 168 c-26 -28 -26 -62 2 -88 27 -25 70 -26 91 -2 23 25 21 54
-4 86 -25 32 -61 34 -89 4z m59 -32 c8 -10 8 -16 -3 -25 -10 -9 -16 -8 -26 3
-12 15 -6 36 9 36 5 0 14 -6 20 -14z"/>
</g>
</svg>
